<mxfile host="Electron" agent="Mozilla/5.0 (Windows NT 10.0; Win64; x64) AppleWebKit/537.36 (KHTML, like Gecko) draw.io/24.7.17 Chrome/128.0.6613.36 Electron/32.0.1 Safari/537.36" version="24.7.17">
  <diagram name="Page-1" id="M35qGuUWE-kjOa3Tgmaa">
    <mxGraphModel dx="1764" dy="1256" grid="1" gridSize="10" guides="1" tooltips="1" connect="1" arrows="1" fold="1" page="1" pageScale="1" pageWidth="650" pageHeight="650" math="0" shadow="0">
      <root>
        <mxCell id="0" />
        <mxCell id="1" parent="0" />
        <mxCell id="8oF9cqvncEiniJVCU6Fe-7" value="" style="ellipse;whiteSpace=wrap;html=1;aspect=fixed;" parent="1" vertex="1">
          <mxGeometry width="640" height="640" as="geometry" />
        </mxCell>
        <mxCell id="blAF2XenPh4FOD1Ou_aI-3" value="" style="shape=link;html=1;rounded=0;entryX=1;entryY=0.5;entryDx=0;entryDy=0;" edge="1" parent="1" target="8oF9cqvncEiniJVCU6Fe-7">
          <mxGeometry width="100" relative="1" as="geometry">
            <mxPoint y="320" as="sourcePoint" />
            <mxPoint x="100" y="320" as="targetPoint" />
          </mxGeometry>
        </mxCell>
        <mxCell id="blAF2XenPh4FOD1Ou_aI-4" value="" style="shape=link;html=1;rounded=0;exitX=0.5;exitY=0;exitDx=0;exitDy=0;entryX=0.5;entryY=1;entryDx=0;entryDy=0;" edge="1" parent="1" source="8oF9cqvncEiniJVCU6Fe-7" target="8oF9cqvncEiniJVCU6Fe-7">
          <mxGeometry width="100" relative="1" as="geometry">
            <mxPoint x="303" y="60" as="sourcePoint" />
            <mxPoint x="555.6666870117188" y="650" as="targetPoint" />
          </mxGeometry>
        </mxCell>
        <mxCell id="8oF9cqvncEiniJVCU6Fe-1" value="&lt;font style=&quot;font-size: 49px;&quot;&gt;Type of disclosure&lt;/font&gt;" style="ellipse;whiteSpace=wrap;html=1;aspect=fixed;" parent="1" vertex="1">
          <mxGeometry x="175" y="175" width="290" height="290" as="geometry" />
        </mxCell>
        <mxCell id="blAF2XenPh4FOD1Ou_aI-5" value="&lt;font style=&quot;font-size: 30px;&quot;&gt;Identity disclosure&lt;/font&gt;" style="text;html=1;align=center;verticalAlign=middle;whiteSpace=wrap;rounded=0;" vertex="1" parent="1">
          <mxGeometry x="115" y="145" width="60" height="30" as="geometry" />
        </mxCell>
        <mxCell id="blAF2XenPh4FOD1Ou_aI-6" value="&lt;font style=&quot;font-size: 30px;&quot;&gt;Attribute disclosure&lt;/font&gt;" style="text;html=1;align=center;verticalAlign=middle;whiteSpace=wrap;rounded=0;" vertex="1" parent="1">
          <mxGeometry x="465" y="145" width="60" height="30" as="geometry" />
        </mxCell>
        <mxCell id="blAF2XenPh4FOD1Ou_aI-7" value="&lt;font style=&quot;font-size: 30px;&quot;&gt;Inference disclosure&lt;/font&gt;" style="text;html=1;align=center;verticalAlign=middle;whiteSpace=wrap;rounded=0;" vertex="1" parent="1">
          <mxGeometry x="115" y="465" width="60" height="30" as="geometry" />
        </mxCell>
        <mxCell id="blAF2XenPh4FOD1Ou_aI-8" value="&lt;font style=&quot;font-size: 30px;&quot;&gt;Membership disclosure&lt;/font&gt;" style="text;html=1;align=center;verticalAlign=middle;whiteSpace=wrap;rounded=0;" vertex="1" parent="1">
          <mxGeometry x="465" y="465" width="60" height="30" as="geometry" />
        </mxCell>
      </root>
    </mxGraphModel>
  </diagram>
</mxfile>
